<?xml version="1.0" standalone="no"?>
<!DOCTYPE svg PUBLIC "-//W3C//DTD SVG 20010904//EN"
 "http://www.w3.org/TR/2001/REC-SVG-20010904/DTD/svg10.dtd">
<svg version="1.0" xmlns="http://www.w3.org/2000/svg"
 width="260.000000pt" height="260.000000pt" viewBox="0 0 260.000000 260.000000"
 preserveAspectRatio="xMidYMid meet">
<metadata>
Created by potrace 1.11, written by Peter Selinger 2001-2013
</metadata>
<g transform="translate(0.000000,260.000000) scale(0.100000,-0.100000)"
fill="#000000" stroke="none">
<path d="M16 2578 c-14 -20 -16 -158 -16 -1284 0 -1209 1 -1262 18 -1277 17
-16 121 -17 1284 -17 1213 0 1266 1 1281 18 15 16 17 49 17 248 0 183 -3 234
-14 250 -14 19 -37 19 -1011 20 -990 1 -997 2 -1017 22 -21 20 -21 27 -21
1013 0 949 -1 993 -19 1011 -16 16 -38 18 -252 18 -231 0 -235 0 -250 -22z"/>
<path d="M1070 2580 c-19 -19 -20 -33 -20 -237 0 -120 3 -228 6 -240 3 -12 18
-26 32 -31 17 -7 289 -10 751 -10 691 1 725 2 742 19 17 17 19 39 19 253 0
231 0 235 -22 250 -20 14 -108 16 -755 16 -720 0 -733 0 -753 -20z"/>
<path d="M1070 1550 c-19 -19 -20 -33 -20 -250 0 -217 1 -231 20 -250 20 -20
33 -20 753 -20 647 0 735 2 755 16 22 15 22 19 22 250 0 221 -1 235 -20 254
-20 20 -33 20 -755 20 -722 0 -735 0 -755 -20z"/>
</g>
</svg>
