<svg xmlns="http://www.w3.org/2000/svg" xmlns:xlink="http://www.w3.org/1999/xlink">

  <symbol id="dribbble" viewBox="915 72 27 27">
    <path d="M936.687898,78.0202909 C936.452896,78.3385225 934.584305,80.734236 930.461164,82.4176001 C930.720646,82.9488022 930.969519,83.4889801 931.201257,84.0324219 C931.282855,84.2249929 931.362821,84.4167479 931.441155,84.6076869 C935.15141,84.1409471 938.838818,84.8891995 939.206008,84.9667175 C939.181529,82.3351862 938.241521,79.9182573 936.687898,78.0202909 M925.442895,74.2308858 C925.751335,74.643771 927.776594,77.401779 929.603571,80.7587154 C933.569227,79.2728182 935.247695,77.016637 935.448426,76.7310445 C933.478654,74.9832181 930.889553,73.9208139 928.055659,73.9208139 C927.156451,73.9208139 926.281722,74.028523 925.442895,74.2308858 M917.139496,82.7880544 C917.638875,82.7953982 922.233651,82.8149817 927.449387,81.4294499 C925.602011,78.1451356 923.608575,75.3838637 923.314823,74.9799542 C920.195336,76.4519798 917.863269,79.3283047 917.139496,82.7880544 M919.771027,92.5283921 C920.023981,92.0959234 923.084717,87.0286957 928.835735,85.1698962 C928.980979,85.1225695 929.127855,85.0785066 929.275547,85.0368917 C928.994851,84.4036922 928.690491,83.7688608 928.371443,83.1446371 C922.801572,84.8108656 917.398161,84.7415074 916.910206,84.7317157 C916.906942,84.8451367 916.904494,84.9577418 916.904494,85.0727948 C916.904494,87.936064 917.989746,90.5512758 919.771027,92.5283921 M932.412169,95.3378068 C932.246526,94.3594483 931.598639,90.9494734 930.032776,86.8810036 C930.008296,86.8891633 929.983817,86.8973231 929.959338,86.9054829 C923.669774,89.0980177 921.411961,93.4594238 921.21123,93.8698611 C923.101853,95.3443346 925.477982,96.2239597 928.055659,96.2239597 C929.600307,96.2239597 931.073148,95.9081759 932.412169,95.3378068 M939.066476,86.8426526 C938.685414,86.7227037 935.614886,85.8063596 932.120049,86.366121 C933.579019,90.3742084 934.172236,93.6381232 934.286473,94.3162015 C936.789079,92.6246776 938.569545,89.9450036 939.066476,86.8426526 M928.055659,98.1113184 C920.857095,98.1113184 915,92.2542233 915,85.0556592 C915,77.8562791 920.857095,72 928.055659,72 C935.255039,72 941.111318,77.8562791 941.111318,85.0556592 C941.111318,92.2542233 935.255039,98.1113184 928.055659,98.1113184"></path>
  </symbol>

  <symbol id="twitter" viewBox="972 75 27 22">
    <path d="M998.111318,77.5123984 C997.150911,77.9383393 996.118698,78.2263798 995.034263,78.3561204 C996.14073,77.6927297 996.990164,76.6433811 997.389993,75.3924858 C996.355332,76.0061017 995.208066,76.4516261 993.988178,76.6923398 C993.011452,75.651151 991.618576,75 990.078008,75 C987.119269,75 984.721108,77.3989774 984.721108,80.3569002 C984.721108,80.7771292 984.767619,81.1859345 984.859824,81.5784203 C980.407029,81.3540261 976.46014,79.2218738 973.818001,75.9808064 C973.356973,76.7723057 973.092595,77.6927297 973.092595,78.6743521 C973.092595,80.5331516 974.038315,82.1724528 975.475253,83.1328597 C974.59726,83.1051164 973.77149,82.8644027 973.049349,82.4629412 C973.048533,82.4849726 973.048533,82.50782 973.048533,82.5298514 C973.048533,85.1254797 974.895092,87.2910872 977.346292,87.7831223 C976.896688,87.9055191 976.423421,87.9707974 975.934649,87.9707974 C975.58949,87.9707974 975.254123,87.9373423 974.926916,87.8753279 C975.608258,90.0034004 977.587006,91.5521279 979.931313,91.5953748 C978.097809,93.0323133 975.787773,93.888275 973.277823,93.888275 C972.845354,93.888275 972.419413,93.8637956 972,93.8132049 C974.370418,95.3333732 977.186361,96.2203421 980.211194,96.2203421 C990.065768,96.2203421 995.453676,88.0572912 995.453676,80.9786759 C995.453676,80.746122 995.44878,80.5152 995.438172,80.285094 C996.485073,79.5303137 997.393257,78.5862264 998.111318,77.5123984"></path>
  </symbol>

  <symbol id="instagram" viewBox="0 0 503.8 503.8">
  	<path d="M502.3,148.1c-1.2-26.8-5.5-45.1-11.7-61.2c-6.4-16.6-15.1-30.6-29.1-44.6c-14-14-28.1-22.6-44.6-29.1
  		c-16-6.2-34.3-10.5-61.2-11.7C328.9,0.3,320.3,0,251.9,0s-77,0.3-103.9,1.5C121.2,2.7,102.9,7,86.9,13.2
  		c-16.6,6.4-30.6,15.1-44.6,29.1c-14,14-22.6,28.1-29.1,44.6c-6.2,16-10.5,34.3-11.7,61.2C0.3,174.9,0,183.5,0,251.9
  		c0,68.4,0.3,77,1.5,103.9c1.2,26.8,5.5,45.1,11.7,61.2c6.4,16.6,15.1,30.6,29.1,44.6c14,14,28.1,22.6,44.6,29.1
  		c16,6.2,34.3,10.5,61.2,11.7c26.9,1.2,35.4,1.5,103.9,1.5s77-0.3,103.9-1.5c26.8-1.2,45.1-5.5,61.2-11.7
  		c16.6-6.4,30.6-15.1,44.6-29.1c14-14,22.6-28.1,29.1-44.6c6.2-16,10.5-34.3,11.7-61.2c1.2-26.9,1.5-35.4,1.5-103.9
  		S503.6,174.9,502.3,148.1z M457,353.7c-1.1,24.6-5.2,37.9-8.7,46.8c-4.6,11.8-10,20.2-18.8,29c-8.8,8.8-17.2,14.3-29,18.8
  		c-8.9,3.4-22.2,7.6-46.8,8.7c-26.6,1.2-34.5,1.5-101.8,1.5s-75.2-0.3-101.8-1.5c-24.6-1.1-37.9-5.2-46.8-8.7
  		c-11.8-4.6-20.2-10-29-18.8c-8.8-8.8-14.3-17.2-18.8-29c-3.4-8.9-7.6-22.2-8.7-46.8c-1.2-26.6-1.5-34.5-1.5-101.8
  		s0.3-75.2,1.5-101.8c1.1-24.6,5.2-37.9,8.7-46.8c4.6-11.8,10-20.2,18.8-29c8.8-8.8,17.2-14.3,29-18.8c8.9-3.4,22.2-7.6,46.8-8.7
  		c26.6-1.2,34.5-1.5,101.8-1.5s75.2,0.3,101.8,1.5c24.6,1.1,37.9,5.2,46.8,8.7c11.8,4.6,20.2,10,29,18.8c8.8,8.8,14.3,17.2,18.8,29
  		c3.4,8.9,7.6,22.2,8.7,46.8c1.2,26.6,1.5,34.5,1.5,101.8S458.2,327.2,457,353.7z"/>
  	<path d="M251.9,122.6c-71.4,0-129.4,57.9-129.4,129.4c0,71.4,57.9,129.4,129.4,129.4s129.4-57.9,129.4-129.4
  		C381.3,180.5,323.4,122.6,251.9,122.6z M251.9,335.9c-46.4,0-84-37.6-84-84c0-46.4,37.6-84,84-84c46.4,0,84,37.6,84,84
  		C335.9,298.3,298.3,335.9,251.9,335.9z"/>
  	<circle cx="386.4" cy="117.4" r="30.2"/>
  </symbol>


  <symbol id="linkedin" viewBox="1087 72 27 26">
    <path d="M1096.07042,85.5158712 C1096.07042,83.2760097 1095.99698,81.4033385 1095.92273,79.7868847 L1100.77046,79.7868847 L1101.02912,82.2854115 L1101.13928,82.2854115 C1101.87284,81.1087702 1103.67289,79.3837913 1106.68467,79.3837913 C1110.35657,79.3837913 1113.11132,81.843967 1113.11132,87.133141 L1113.11132,97.7473919 L1107.52921,97.7473919 L1107.52921,87.7940837 C1107.52921,85.4807841 1106.71976,83.9010493 1104.70021,83.9010493 C1103.15883,83.9010493 1102.24167,84.9659015 1101.83694,85.9940347 C1101.68925,86.3612251 1101.65253,86.8752917 1101.65253,87.3901743 L1101.65253,97.7473919 L1096.07042,97.7473919 L1096.07042,85.5158712 Z M1087.14769,97.74576 L1092.7298,97.74576 L1092.7298,79.7868847 L1087.14769,79.7868847 L1087.14769,97.74576 Z M1092.91258,74.7914631 C1092.91258,76.3336629 1091.77348,77.5821103 1089.9008,77.5821103 C1088.13829,77.5821103 1087,76.3336629 1087,74.7914631 C1087,73.2125443 1088.17664,72 1089.97506,72 C1091.77348,72 1092.87586,73.2125443 1092.91258,74.7914631 L1092.91258,74.7914631 Z"></path>
  </symbol>

</svg>
